# xmcd
#
# Track frame offsets: 
#        150
#        17768
#        33526
#        48272
#        67997
#        84779
#        101069
#        117646
#        135226
#        156609
#        169665
#
# Disc length: 4627 seconds
#
# Revision: 0
# Processed by: cddbd v1.5.2PL0 Copyright (c) Steve Scherf et al.
# Submitted via: ExactAudioCopy v0.99pb5
#
DISCID=8a12110b
DTITLE=Big Kenny - The Quiet Times Of A Rock And Roll Farm Boy
DYEAR=2009
DGENRE=Country
TTITLE0=Wake Up
TTITLE1=Long After I'm Gone
TTITLE2=Be Back Home
TTITLE3=Less Than Whole
TTITLE4=Go Your Own Way
TTITLE5=To Find A Heart
TTITLE6=Happy People
TTITLE7=Drifter
TTITLE8=Free Like Me
TTITLE9=Share The Love
TTITLE10=The Whole Experience
EXTD=
EXTT0=
EXTT1=
EXTT2=
EXTT3=
EXTT4=
EXTT5=
EXTT6=
EXTT7=
EXTT8=
EXTT9=
EXTT10=
PLAYORDER=
